<?xml version="1.0" encoding="UTF-8"?>
<svg id="Kapsel" xmlns="http://www.w3.org/2000/svg" viewBox="0 0 500 500">
  <defs>
    <style>
      .cls-1 {
        opacity: .15;
      }

      .cls-1, .cls-2, .cls-3, .cls-4, .cls-5 {
        stroke-width: 0px;
      }

      .cls-2 {
        fill: #c7b67c;
      }

      .cls-3 {
        fill: #c07528;
      }

      .cls-4 {
        fill: #fff;
      }

      .cls-5 {
        fill: #e4d8af;
      }

      .cls-6 {
        fill: #c69c6d;
        stroke: #dcaf80;
        stroke-linejoin: round;
        stroke-width: 9px;
      }
    </style>
  </defs>
  <polygon class="cls-1" points="152.15 49.86 169.15 52.86 181.92 52.86 188.63 49.86 196.15 42.86 202.15 36.86 209.15 31.86 214.15 29.86 220.02 29.86 227.15 32.86 233.15 36.86 237.15 39.86 242.15 41.36 253.35 41.36 262.15 37.86 267.15 33.86 273.26 29.86 282.02 29.86 286.15 30.86 290.15 32.86 296.15 38.86 301.15 43.86 306.15 48.86 313.15 51.86 319.57 52.86 323.15 52.86 327.15 49.86 332.15 47.86 337.15 47.86 344.15 48.86 349.15 50.86 353.15 54.86 356.15 58.86 360.15 66.86 363.15 71.86 366.15 75.86 370.15 79.86 376.15 82.86 383.15 83.86 396.15 84.86 402.15 86.86 406.15 89.86 409.15 97.86 411.15 103.86 411.15 111.56 413.15 115.86 415.15 119.86 418.15 122.86 422.15 126.86 429.15 130.86 435.15 132.86 441.15 135.86 446.15 139.86 448.15 143.86 449.15 159.86 448.15 177.86 454.15 185.86 464.15 194.86 469.15 200.86 472.15 208.86 472.15 215.34 468.15 224.86 464.15 230.86 463.15 239.86 463.29 244.86 465.15 249.86 469.15 254.86 474.15 261.86 476.15 267.86 477.15 272.86 476.15 280.86 473.15 283.86 470.15 287.86 467.15 292.86 463.15 296.86 461.15 299.86 460.15 303.86 459.15 307.86 459.15 312.86 459.15 318.86 460.15 322.86 462.15 326.86 463.15 332.86 462.15 341.86 457.15 349.86 454.15 352.86 450.15 354.86 447.15 355.86 443.15 357.86 440.15 360.79 437.15 363.86 435.15 366.86 433.15 369.86 431.15 373.86 431.15 380.86 431.15 387.86 431.15 392.86 429.15 397.86 426.15 401.86 422.15 405.86 417.15 407.86 411.15 408.86 405.15 409.86 401.15 411.86 397.15 414.86 392.15 418.86 389.15 422.86 387.15 427.86 384.15 438.86 380.15 444.86 375.15 448.86 370.15 450.86 362 450.86 354.15 449.86 347.15 449.86 341.15 452.86 335.15 456.86 330.15 460.86 325.15 469.86 320.15 473.86 312.15 477.86 304.97 477.86 299.15 475.86 293.15 471.86 284.15 469.86 276.15 471.86 268.15 476.86 263.15 480.86 255.15 485.86 247.15 486.86 239.15 485.86 234.15 481.86 227.15 476.86 219.15 471.86 213.15 471.86 206.15 471.86 200.15 473.86 196.15 475.86 190.15 477.86 178.15 476.86 173.15 473.86 169.15 469.86 164.15 464.86 160.15 458.86 152.15 451.9 144.15 450.86 129.15 450.86 122.15 448.86 118.15 446.86 113.15 441.86 110.15 436.86 104.15 419.86 98.15 413.86 90.15 409.86 83.15 407.86 73.15 404.86 66.15 397.86 64.15 392.86 63.15 371.86 59.15 364.86 54.15 359.86 48.15 354.86 41.15 350.86 37.15 346.86 32.15 338.86 34.15 324.86 37.15 317.86 37.15 312.86 37.15 305.86 32.15 296.61 27.15 289.86 21.15 283.86 19.15 275.86 19.15 267.07 24.15 259.86 29.15 252.86 32.15 243.86 32.15 232.86 28.15 225.86 23.15 214.86 23.15 206.86 27.15 199.86 33.15 193.86 43.15 183.86 47.15 176.86 49.15 167.86 46.15 156.86 46.15 148.86 49.15 142.86 54.15 136.86 62.15 132.86 70.15 128.86 77.15 124.86 81.15 119.86 85.15 110.86 86.15 98.86 90.15 90.86 94.15 86.86 102.15 83.86 112.15 83.86 120.15 81.86 128.15 77.86 134.15 69.86 138.15 60.86 144.15 52.86 148.15 49.86 152.15 49.86"/>
  <polygon class="cls-3" points="161.5 36.5 178.5 39.5 191.27 39.5 197.98 36.5 205.5 29.5 211.5 23.5 218.5 18.5 223.5 16.5 229.36 16.5 236.5 19.5 242.5 23.5 246.5 26.5 251.5 28 262.69 28 271.5 24.5 276.5 20.5 282.6 16.5 291.37 16.5 295.5 17.5 299.5 19.5 305.5 25.5 310.5 30.5 315.5 35.5 322.5 38.5 328.92 39.5 332.5 39.5 336.5 36.5 341.5 34.5 346.5 34.5 353.5 35.5 358.5 37.5 362.5 41.5 365.5 45.5 369.5 53.5 372.5 58.5 375.5 62.5 379.5 66.5 385.5 69.5 392.5 70.5 405.5 71.5 411.5 73.5 415.5 76.5 418.5 84.5 420.5 90.5 420.5 98.2 422.5 102.5 424.5 106.5 427.5 109.5 431.5 113.5 438.5 117.5 444.5 119.5 450.5 122.5 455.5 126.5 457.5 130.5 458.5 146.5 457.5 164.5 463.5 172.5 473.5 181.5 478.5 187.5 481.5 195.5 481.5 201.98 477.5 211.5 473.5 217.5 472.5 226.5 472.63 231.5 474.5 236.5 478.5 241.5 483.5 248.5 485.5 254.5 486.5 259.5 485.5 267.5 482.5 270.5 479.5 274.5 476.5 279.5 472.5 283.5 470.5 286.5 469.5 290.5 468.5 294.5 468.5 299.5 468.5 305.5 469.5 309.5 471.5 313.5 472.5 319.5 471.5 328.5 466.5 336.5 463.5 339.5 459.5 341.5 456.5 342.5 452.5 344.5 449.5 347.43 446.5 350.5 444.5 353.5 442.5 356.5 440.5 360.5 440.5 367.5 440.5 374.5 440.5 379.5 438.5 384.5 435.5 388.5 431.5 392.5 426.5 394.5 420.5 395.5 414.5 396.5 410.5 398.5 406.5 401.5 401.5 405.5 398.5 409.5 396.5 414.5 393.5 425.5 389.5 431.5 384.5 435.5 379.5 437.5 371.34 437.5 363.5 436.5 356.5 436.5 350.5 439.5 344.5 443.5 339.5 447.5 334.5 456.5 329.5 460.5 321.5 464.5 314.31 464.5 308.5 462.5 302.5 458.5 293.5 456.5 285.5 458.5 277.5 463.5 272.5 467.5 264.5 472.5 256.5 473.5 248.5 472.5 243.5 468.5 236.5 463.5 228.5 458.5 222.5 458.5 215.5 458.5 209.5 460.5 205.5 462.5 199.5 464.5 187.5 463.5 182.5 460.5 178.5 456.5 173.5 451.5 169.5 445.5 161.5 438.54 153.5 437.5 138.5 437.5 131.5 435.5 127.5 433.5 122.5 428.5 119.5 423.5 113.5 406.5 107.5 400.5 99.5 396.5 92.5 394.5 82.5 391.5 75.5 384.5 73.5 379.5 72.5 358.5 68.5 351.5 63.5 346.5 57.5 341.5 50.5 337.5 46.5 333.5 41.5 325.5 43.5 311.5 46.5 304.5 46.5 299.5 46.5 292.5 41.5 283.25 36.5 276.5 30.5 270.5 28.5 262.5 28.5 253.71 33.5 246.5 38.5 239.5 41.5 230.5 41.5 219.5 37.5 212.5 32.5 201.5 32.5 193.5 36.5 186.5 42.5 180.5 52.5 170.5 56.5 163.5 58.5 154.5 55.5 143.5 55.5 135.5 58.5 129.5 63.5 123.5 71.5 119.5 79.5 115.5 86.5 111.5 90.5 106.5 94.5 97.5 95.5 85.5 99.5 77.5 103.5 73.5 111.5 70.5 121.5 70.5 129.5 68.5 137.5 64.5 143.5 56.5 147.5 47.5 153.5 39.5 157.5 36.5 161.5 36.5"/>
  <circle class="cls-5" cx="251.5" cy="231.5" r="198"/>
  <path class="cls-4" d="m245,47c105.49,0,191,85.51,191,191,0,44.75-15.4,85.91-41.18,118.47,30.55-33.5,49.18-78.06,49.18-126.97,0-104.11-84.39-188.5-188.5-188.5-34.69,0-67.18,9.38-95.09,25.72,25.5-12.62,54.22-19.72,84.59-19.72Z"/>
  <path class="cls-2" d="m257.48,418.55c-105.49-.04-190.97-85.58-190.93-191.07.02-44.75,15.43-85.9,41.22-118.45-30.56,33.49-49.21,78.04-49.22,126.95-.04,104.11,84.33,188.53,188.43,188.57,34.69.01,67.18-9.36,95.1-25.69-25.5,12.61-54.22,19.7-84.6,19.69Z"/>
  <g>
    <g>
      <path class="cls-3" d="m265.5,386c-.16,0-.32,0-.48,0-.16,0-.32,0-.48,0-63.57,0-117.94-38.91-139.97-93.92-6.82-16.9-10.56-35.31-10.56-54.58s3.75-37.68,10.56-54.58c22.04-55.01,76.4-93.92,139.97-93.92.16,0,.32,0,.48,0,.16,0,.32,0,.48,0,30,0,57.96,8.55,81.48,23.29-24.9-16.6-54.81-26.29-86.98-26.29-86.71,0-157,70.29-157,157s70.29,157,157,157,157-70.29,157-157c0-.93-.02-1.85-.04-2.78-1.48,80.76-68.72,145.78-151.46,145.78Z"/>
      <polygon class="cls-3" points="416.96 240.22 412 268 406 287 398 304 389 315 377 326 364 334 344 344 329 347 309 349 294.67 349 280 346 270 342 262 339 250 331.16 242 326 233 317 227 310 218 298 212 286 206 266 205 252 205 239 208 226 212 214 216 206 221 196 232 182 244 172 257 164 269 157 284 152 300 150 316 149 318.07 149 295 148 286 149 274 152 261 157 247 165 233 175 222 185 212 198 205 210.42 198 228 195 247 195 267.42 200 288 206 302 214 315 225 328 238 339 251 348 266 355 278 358 295 361 307 362 324 360 340 356 357 349 362 347 351 355 343 360 334 366 321 372 309 375 293 379 274 381 262 382 244 381 228 378 211 373 197 367 182 358 169 349 155 336 140 318 129 300 121.03 282.33 117.45 269.15 114.15 244.12 114.01 236.25 114.01 231.8 114.56 224.6 115.03 220.06 116.16 212.37 117.5 205.6 118.78 200.34 121.12 192.39 123.53 185.55 127.48 176.13 130.29 170.37 132.59 166.07 133.72 164.08 134.47 162.81 135.25 161.49 136.11 160.08 139.69 154.58 142.79 150.22 147.23 144.5 141.09 140.48 130 155 125.38 162.16 119 172 113 185 106 204 102 221 102 241 102 256.06 104 269 107 284 114 304 122 320 133 337 147 353 159 364 168.12 370.32 173.6 374.11 179.98 378.11 197.25 386.96 236 398 274.21 398 311 390 348 370 381 339 393.77 325.23 399 318 404 308 411 291 415 273 416.57 254.65 416.96 240.22"/>
    </g>
    <g>
      <g>
        <polygon class="cls-3" points="97 252 97 244 91 237 83 231 77 227 76 226 76 231 78 238 82 246 87 250 89.88 252 95 253 97 253 97 252"/>
        <polygon class="cls-3" points="96 230 97 217.87 97 213.79 94 209 90 202 86.5 197.28 84 192 82 188 81 194 81 198.79 81 205 81 210.53 83 216 85 220 88 225 91 228 96 230"/>
        <polygon class="cls-3" points="104 198 104 188 104 183.83 101 178 98 173 96 162 94 166 92 170 90 175 90 180.53 90 185.87 91 190 93 195 96 200 99 205 102 202.57 104 198"/>
        <polygon class="cls-3" points="109 179 115 169 116 156 116 145.28 114 139 112.5 129.36 114 123 115 120 110 124 107 130 104 137.71 102 146 102 161.11 104 171.01 108 178 109 179"/>
        <polygon class="cls-3" points="124.67 149.5 133 137 135 132 135 122.27 135.55 109.02 136 98 132 101 129 107 126 111 124 114 122.15 120 121.08 123.75 120 131 120 136.16 120 141.5 121 147 123 150 124.67 149.5"/>
        <polygon class="cls-3" points="142 132 150 122 154 117 156 110 157 102 157 93.62 158 89 161 84 158.66 84 156 87 154 89 151.5 91.97 148 96 144 100 141 105 139 111 138 116 138 123.05 139 129 142 132"/>
        <polygon class="cls-3" points="163.02 109.02 168 107 173 104 177 99 179 95 180 88 182 81 184 77 186 75 182 76 178 79 174.51 80.72 170.73 84 168 88 165 92 163.02 97.46 163.02 109.02"/>
        <polygon class="cls-3" points="185 100 191 97 196 93 200 88 203 81 205 76 207 73 209 71 204 72 198 74 194 77 190 80 186 84 183 90 182 94 182 99.18 185 100"/>
        <polygon class="cls-3" points="212 91 218 88 222 83 225 80 228 77 231 73 233 72 227.83 72 223 72 217 74 212 76 209 79 206 82 205 85 204 90 204 91.35 212 91"/>
        <polygon class="cls-3" points="122 258 132.25 258 137.19 253 140 249 142.26 243 143 238 144 234 144 233 139 236 136 238 133 240 130 242 127 244 124 249 122 253 121 256 121 257.51 122 258"/>
        <polygon class="cls-3" points="119 239 128 236 134 233 139 228 144 218 146 214 148 209 150 203 146 204 140 207 135 211 131 214 128 217 125 220 122 225 120 229 119 232 119 238.51 119 239"/>
        <polygon class="cls-3" points="121 207 131 206 138 204 145 201 151 195 157 189 161 184 164 181 165 180 160 181 153 183 145 185 137 188 131 192 125 198 121.31 203 121 207"/>
        <polygon class="cls-3" points="132 182 140 180 148 177 156 173 162 168 168 163 174 158 176 157 165 157.54 155 159 145 162 140 165 133 172 132 177 132 182"/>
        <polygon class="cls-3" points="154 153.52 166.58 153.52 171 153 177 150 181 147 186 144 190 142 194 139 187 138 175 137 166 138 162 139 157 142 152.12 145.26 149 149 147 151 152.24 153.52 154 153.52"/>
        <polygon class="cls-3" points="170.5 129.86 175 132 180 133 187.29 133 192 131 199 129 204 126 208 125 210.01 125 207 123 202 121 195 120 188.83 120 183 121 179 122 174 125 171 128 170.5 129.86"/>
        <polygon class="cls-3" points="192 112 198 115 202 117 209 117 214 117 218.33 114.5 223 113 229 111 223 108 218 106 213 105 209 104.25 203.05 104.25 198 106 192 112"/>
        <polygon class="cls-3" points="217.8 100 225 106 230 106 237 106 240 106 245 105 248 104 244 100 240 98 235 95 229 94.68 224 95 220 97 217.8 100"/>
        <polygon class="cls-3" points="241.6 94.68 248 98.91 252 100 259 98 263.95 97.34 269.45 97.34 276 98 282 99 287.47 100 294 102 304 105 313 108 321 112 332 119 338 123 323 112 314 107 303 103 294 100 284 97 272 95 258.18 94.68 254 92 250 91.07 245 91 243 92 241.6 94.68"/>
        <polygon class="cls-3" points="249.53 86 256.12 89.23 262.49 91 267.91 89.02 273.9 89.23 281.2 89.79 293.5 91 304 93 316 97 325.98 101.31 336.02 106.04 345.38 111.3 351 116 358 122 366 130 358 121 351 115 345 110 335 104 325 99 314 95 305 92 293 89 284 87 275.13 86 268 83 262 81 260.24 81 256 82 252 84 249.53 86"/>
        <polygon class="cls-3" points="239 84 248 78.18 255 75 262 74 270 74 276.4 74 283.14 74 289.8 75.27 302 78 311 80 324 86 336 92 349 101 359 108 363 112 359.03 107 338 92.28 315.95 81 311 79 300 76 290.84 74 282 72 263.88 72 254 73 244 76 237 76 232.9 78.24 230 82 229 85.38 233 86 237 85 239 84"/>
      </g>
      <polygon class="cls-3" points="191 266 191 259.35 187 253 182 248 176 245 171 240 170 244 171 248 172 252 175 258 180.5 262.79 186.03 266.78 190 267 191 266"/>
      <polygon class="cls-3" points="191 239.2 191 231.4 191 225.46 187 220 182 212 179 204 177 209 176 213 175 219 175 225 177 230 179 235 183 238.65 186 241 189.47 241 191 239.2"/>
      <polygon class="cls-3" points="195 217 198 213 200.31 207.45 200.31 197.14 198 191 195 182.75 192 174 190 170 188 178 187 184 186 190 186 199 188 206 191 214 193.16 217 195 217"/>
      <polygon class="cls-3" points="208 194 212 188 216 181 218 176 219 163 220 152 220 144 214 150.91 210 156 205 166 203 174 203 184 203 190 204.71 193.5 208 194"/>
      <polygon class="cls-3" points="229.71 170 236 166 240 158 241 148 241 133 237 136 234 142 231 146 228 153 227 157 227 165.86 227.4 169 229.71 170"/>
      <polygon class="cls-3" points="247 157 255.49 151.5 259.48 146.01 262 141 263.61 133 266 128 262 129 255 134 251 138 248 142 246.27 145.26 246 149 246 154.67 247 157"/>
      <polygon class="cls-3" points="266 149.3 275 147 280.61 144 285 138 288 131 293 126 286.42 126 280 129 276 132 271 136 268 142 266 145.68 266 149.3"/>
      <polygon class="cls-3" points="288 146 300.91 146 306 144 311.55 140.48 316 137 320 134 324 132 325.59 132 323 131 315.61 130 305 131 298.93 133 291 140 288 146"/>
      <polygon class="cls-3" points="214 265 220.29 265 225 262 229 256 231 250 233 246 236 244 230 245 225 246.6 219.99 250 216 253 214 256.24 212 260 212 264.22 214 265"/>
      <polygon class="cls-3" points="211.41 244 217 244 222.33 244 228 240 232 236 236 232.97 237 232 232 231 225 230 217 232 213 234 210 238 209 241 211.41 244"/>
      <polygon class="cls-3" points="218 225 227 226 233 225 238 223 243 221 246 219 251 217 244 215 238 213 231.82 213 224 214 219 217 214 220 214 223 216 224 218 225"/>
      <polygon class="cls-3" points="224 200 229 205 235 207 242.22 207 247 206 252 205 258 204 254 201 248 198 243 196 239 195 233 195 228 196 225 198 224 200"/>
      <polygon class="cls-3" points="234 187 240 190 246 193 254.15 193 260 192.47 266 192 271 191 276 190 278 189 272 186 264 183 257 181 249 180 241 181.52 236 184 234 187"/>
      <polygon class="cls-3" points="252 172 257 176 262 179 266.63 180 277.12 180 283.72 180 290 178 285 175 277.57 172 272 169 268 168 264 167 257 169 252 172"/>
      <polygon class="cls-3" points="275 160 280 165 286 169 293 172 300.63 173.5 308 174 312.74 174 309 170 303 165 299 162 295 159 290 157.38 282.73 157.38 277.48 157.38 275 160"/>
      <polygon class="cls-3" points="301 155 310 162 320.01 167 331 168 339.46 168 346 172 355 178 360 182 364 185 367 189 372 194 378 202 382 210 378 201 372 193 366 186 359 179 351 173 343 168 334 162 326 157 322 155 316 152 308 152 304 153 301 155"/>
      <polygon class="cls-3" points="326 153 328.53 154.69 329.12 155.08 332 157 333.57 157 335 156 336 155 339 155 345 157 351 160 357 163 364 168 369 171 374 176 380 182 386 189 389 193 386 188 381 182 376 177 372 173 367 168 363 165 348 157 343 155 336 151 333 149 330 149 328 150 326 151.76 326 153"/>
      <polygon class="cls-3" points="322 147 326 146 329 144 333 142 339.18 142 345.65 142 350 143 357.5 146 364 149 374 156 382 162 391 170 381 160 372 153 361 145 346 140 334 139 328 138 322 138 320 139 318 140.48 316 143 316 144 317 145 319 146 322 147"/>
    </g>
  </g>
  <g>
    <path class="cls-6" d="m378.31,404.53l9.64,14.46-9.64-14.46Z"/>
    <path class="cls-6" d="m419.15,363.77l13.1,11.42-13.1-11.42Z"/>
    <path class="cls-6" d="m448.58,307.94l14.42,9.71-14.42-9.71Z"/>
    <path class="cls-6" d="m459.89,252.51l17.33,1.35-17.33-1.35Z"/>
    <path class="cls-6" d="m455.06,192.18l17.38-.21-17.38.21Z"/>
    <path class="cls-6" d="m433.09,133.48l13.91-2.68-13.91,2.68Z"/>
    <path class="cls-6" d="m396.91,86.87l8.79-6.29-8.79,6.29Z"/>
    <path class="cls-6" d="m345.04,48.02l2-4.83-2,4.83Z"/>
    <path class="cls-6" d="m284.75,30.79l.44-5.21-.44,5.21Z"/>
    <path class="cls-6" d="m226.95,29.14l.1-4.14-.1,4.14Z"/>
  </g>
</svg>